<svg id="Laag_1" data-name="Laag 1" xmlns="http://www.w3.org/2000/svg" xmlns:xlink="http://www.w3.org/1999/xlink" viewBox="0 0 541 541"><defs><style>.cls-1{fill:#ffcc03;}.cls-2{stroke:#333;stroke-width:29px;fill:url(#Naamloos_verloop_165);}.cls-2,.cls-4{stroke-miterlimit:10;}.cls-3{fill:#feef89;stroke:#fff;stroke-linecap:round;stroke-linejoin:round;}.cls-3,.cls-4{stroke-width:20px;}.cls-4{fill:#fff;stroke:#cdcccc;}</style><linearGradient id="Naamloos_verloop_165" x1="14.5" y1="270.5" x2="526.5" y2="270.5" gradientUnits="userSpaceOnUse"><stop offset="0" stop-color="#cdcccc"/><stop offset="0.22" stop-color="#cac9c9"/><stop offset="0.39" stop-color="#c0bfbf"/><stop offset="0.55" stop-color="#afaeae"/><stop offset="0.7" stop-color="#979696"/><stop offset="0.85" stop-color="#787777"/><stop offset="0.98" stop-color="#535252"/><stop offset="1" stop-color="#4e4d4d"/></linearGradient></defs><path class="cls-1" d="M270.52,52.47c120.14,0,218,97.89,218,218s-97.89,218-218,218-218-97.89-218-218,97.89-218,218-218Z"/><path class="cls-2" d="M267.68,14.52A255.38,255.38,0,0,0,14.52,273.32C16.08,415.17,133.1,528,273.32,526.48s254.73-117,253.16-258.8A255.38,255.38,0,0,0,267.68,14.52ZM273,493.87C149,495.24,48.47,395.25,47.13,273,45.76,149,145.75,48.47,268,47.13S490.9,145.77,493.87,268A222.67,222.67,0,0,1,273,493.87Z"/><path class="cls-3" d="M275,215.62A59.33,59.33,0,1,0,334.28,275,59.51,59.51,0,0,0,275,215.62Zm1-85.51L151.82,202.53V345.89L276,418.3,400.1,345.89V202.53Z"/><path class="cls-4" d="M275,215.63A59.33,59.33,0,1,0,334.3,275,59.5,59.5,0,0,0,275,215.63Z"/></svg>